<svg xmlns="http://www.w3.org/2000/svg" viewBox="0 0 900 220">
<rect width="900" height="220" rx="16" fill="#0d1117" stroke="#30363d"/>
<text x="32" y="24" fill="#f0f6fc" font-family="Arial,sans-serif" font-size="15" font-weight="700">Coding activity</text>
<rect x="32" y="38" width="11" height="11" rx="2" fill="#161b22"/><rect x="48" y="38" width="11" height="11" rx="2" fill="#161b22"/><rect x="64" y="38" width="11" height="11" rx="2" fill="#6e7681"/><rect x="80" y="38" width="11" height="11" rx="2" fill="#6e7681"/><rect x="96" y="38" width="11" height="11" rx="2" fill="#161b22"/><rect x="112" y="38" width="11" height="11" rx="2" fill="#161b22"/><rect x="128" y="38" width="11" height="11" rx="2" fill="#30363d"/><rect x="144" y="38" width="11" height="11" rx="2" fill="#161b22"/><rect x="160" y="38" width="11" height="11" rx="2" fill="#161b22"/><rect x="176" y="38" width="11" height="11" rx="2" fill="#161b22"/><rect x="192" y="38" width="11" height="11" rx="2" fill="#161b22"/><rect x="208" y="38" width="11" height="11" rx="2" fill="#30363d"/><rect x="224" y="38" width="11" height="11" rx="2" fill="#6e7681"/><rect x="240" y="38" width="11" height="11" rx="2" fill="#6e7681"/><rect x="256" y="38" width="11" height="11" rx="2" fill="#6e7681"/><rect x="272" y="38" width="11" height="11" rx="2" fill="#161b22"/><rect x="288" y="38" width="11" height="11" rx="2" fill="#161b22"/><rect x="304" y="38" width="11" height="11" rx="2" fill="#484f58"/><rect x="320" y="38" width="11" height="11" rx="2" fill="#161b22"/><rect x="336" y="38" width="11" height="11" rx="2" fill="#161b22"/><rect x="352" y="38" width="11" height="11" rx="2" fill="#161b22"/><rect x="368" y="38" width="11" height="11" rx="2" fill="#161b22"/><rect x="384" y="38" width="11" height="11" rx="2" fill="#30363d"/><rect x="400" y="38" width="11" height="11" rx="2" fill="#161b22"/><rect x="416" y="38" width="11" height="11" rx="2" fill="#6e7681"/><rect x="432" y="38" width="11" height="11" rx="2" fill="#161b22"/><rect x="448" y="38" width="11" height="11" rx="2" fill="#6e7681"/><rect x="464" y="38" width="11" height="11" rx="2" fill="#f0f6fc"/><rect x="480" y="38" width="11" height="11" rx="2" fill="#161b22"/><rect x="496" y="38" width="11" height="11" rx="2" fill="#30363d"/><rect x="512" y="38" width="11" height="11" rx="2" fill="#161b22"/><rect x="528" y="38" width="11" height="11" rx="2" fill="#161b22"/><rect x="544" y="38" width="11" height="11" rx="2" fill="#161b22"/><rect x="560" y="38" width="11" height="11" rx="2" fill="#161b22"/><rect x="576" y="38" width="11" height="11" rx="2" fill="#161b22"/><rect x="592" y="38" width="11" height="11" rx="2" fill="#484f58"/><rect x="608" y="38" width="11" height="11" rx="2" fill="#f0f6fc"/><rect x="624" y="38" width="11" height="11" rx="2" fill="#6e7681"/><rect x="640" y="38" width="11" height="11" rx="2" fill="#6e7681"/><rect x="656" y="38" width="11" height="11" rx="2" fill="#6e7681"/><rect x="672" y="38" width="11" height="11" rx="2" fill="#161b22"/><rect x="688" y="38" width="11" height="11" rx="2" fill="#161b22"/><rect x="704" y="38" width="11" height="11" rx="2" fill="#161b22"/><rect x="720" y="38" width="11" height="11" rx="2" fill="#161b22"/><rect x="736" y="38" width="11" height="11" rx="2" fill="#161b22"/><rect x="752" y="38" width="11" height="11" rx="2" fill="#484f58"/><rect x="768" y="38" width="11" height="11" rx="2" fill="#484f58"/><rect x="784" y="38" width="11" height="11" rx="2" fill="#161b22"/><rect x="800" y="38" width="11" height="11" rx="2" fill="#161b22"/><rect x="816" y="38" width="11" height="11" rx="2" fill="#6e7681"/><rect x="832" y="38" width="11" height="11" rx="2" fill="#161b22"/><rect x="848" y="38" width="11" height="11" rx="2" fill="#161b22"/><rect x="864" y="38" width="11" height="11" rx="2" fill="#161b22"/><rect x="32" y="60" width="11" height="11" rx="2" fill="#6e7681"/><rect x="48" y="60" width="11" height="11" rx="2" fill="#161b22"/><rect x="64" y="60" width="11" height="11" rx="2" fill="#6e7681"/><rect x="80" y="60" width="11" height="11" rx="2" fill="#484f58"/><rect x="96" y="60" width="11" height="11" rx="2" fill="#161b22"/><rect x="112" y="60" width="11" height="11" rx="2" fill="#30363d"/><rect x="128" y="60" width="11" height="11" rx="2" fill="#161b22"/><rect x="144" y="60" width="11" height="11" rx="2" fill="#161b22"/><rect x="160" y="60" width="11" height="11" rx="2" fill="#161b22"/><rect x="176" y="60" width="11" height="11" rx="2" fill="#161b22"/><rect x="192" y="60" width="11" height="11" rx="2" fill="#161b22"/><rect x="208" y="60" width="11" height="11" rx="2" fill="#6e7681"/><rect x="224" y="60" width="11" height="11" rx="2" fill="#6e7681"/><rect x="240" y="60" width="11" height="11" rx="2" fill="#161b22"/><rect x="256" y="60" width="11" height="11" rx="2" fill="#484f58"/><rect x="272" y="60" width="11" height="11" rx="2" fill="#161b22"/><rect x="288" y="60" width="11" height="11" rx="2" fill="#161b22"/><rect x="304" y="60" width="11" height="11" rx="2" fill="#161b22"/><rect x="320" y="60" width="11" height="11" rx="2" fill="#161b22"/><rect x="336" y="60" width="11" height="11" rx="2" fill="#484f58"/><rect x="352" y="60" width="11" height="11" rx="2" fill="#161b22"/><rect x="368" y="60" width="11" height="11" rx="2" fill="#161b22"/><rect x="384" y="60" width="11" height="11" rx="2" fill="#161b22"/><rect x="400" y="60" width="11" height="11" rx="2" fill="#6e7681"/><rect x="416" y="60" width="11" height="11" rx="2" fill="#161b22"/><rect x="432" y="60" width="11" height="11" rx="2" fill="#161b22"/><rect x="448" y="60" width="11" height="11" rx="2" fill="#161b22"/><rect x="464" y="60" width="11" height="11" rx="2" fill="#161b22"/><rect x="480" y="60" width="11" height="11" rx="2" fill="#30363d"/><rect x="496" y="60" width="11" height="11" rx="2" fill="#161b22"/><rect x="512" y="60" width="11" height="11" rx="2" fill="#161b22"/><rect x="528" y="60" width="11" height="11" rx="2" fill="#161b22"/><rect x="544" y="60" width="11" height="11" rx="2" fill="#6e7681"/><rect x="560" y="60" width="11" height="11" rx="2" fill="#6e7681"/><rect x="576" y="60" width="11" height="11" rx="2" fill="#f0f6fc"/><rect x="592" y="60" width="11" height="11" rx="2" fill="#f0f6fc"/><rect x="608" y="60" width="11" height="11" rx="2" fill="#484f58"/><rect x="624" y="60" width="11" height="11" rx="2" fill="#484f58"/><rect x="640" y="60" width="11" height="11" rx="2" fill="#161b22"/><rect x="656" y="60" width="11" height="11" rx="2" fill="#161b22"/><rect x="672" y="60" width="11" height="11" rx="2" fill="#161b22"/><rect x="688" y="60" width="11" height="11" rx="2" fill="#161b22"/><rect x="704" y="60" width="11" height="11" rx="2" fill="#161b22"/><rect x="720" y="60" width="11" height="11" rx="2" fill="#161b22"/><rect x="736" y="60" width="11" height="11" rx="2" fill="#161b22"/><rect x="752" y="60" width="11" height="11" rx="2" fill="#161b22"/><rect x="768" y="60" width="11" height="11" rx="2" fill="#161b22"/><rect x="784" y="60" width="11" height="11" rx="2" fill="#161b22"/><rect x="800" y="60" width="11" height="11" rx="2" fill="#161b22"/><rect x="816" y="60" width="11" height="11" rx="2" fill="#161b22"/><rect x="832" y="60" width="11" height="11" rx="2" fill="#161b22"/><rect x="848" y="60" width="11" height="11" rx="2" fill="#161b22"/><rect x="864" y="60" width="11" height="11" rx="2" fill="#161b22"/><rect x="32" y="82" width="11" height="11" rx="2" fill="#484f58"/><rect x="48" y="82" width="11" height="11" rx="2" fill="#161b22"/><rect x="64" y="82" width="11" height="11" rx="2" fill="#161b22"/><rect x="80" y="82" width="11" height="11" rx="2" fill="#161b22"/><rect x="96" y="82" width="11" height="11" rx="2" fill="#161b22"/><rect x="112" y="82" width="11" height="11" rx="2" fill="#30363d"/><rect x="128" y="82" width="11" height="11" rx="2" fill="#484f58"/><rect x="144" y="82" width="11" height="11" rx="2" fill="#161b22"/><rect x="160" y="82" width="11" height="11" rx="2" fill="#161b22"/><rect x="176" y="82" width="11" height="11" rx="2" fill="#161b22"/><rect x="192" y="82" width="11" height="11" rx="2" fill="#161b22"/><rect x="208" y="82" width="11" height="11" rx="2" fill="#30363d"/><rect x="224" y="82" width="11" height="11" rx="2" fill="#161b22"/><rect x="240" y="82" width="11" height="11" rx="2" fill="#30363d"/><rect x="256" y="82" width="11" height="11" rx="2" fill="#161b22"/><rect x="272" y="82" width="11" height="11" rx="2" fill="#161b22"/><rect x="288" y="82" width="11" height="11" rx="2" fill="#30363d"/><rect x="304" y="82" width="11" height="11" rx="2" fill="#484f58"/><rect x="320" y="82" width="11" height="11" rx="2" fill="#6e7681"/><rect x="336" y="82" width="11" height="11" rx="2" fill="#6e7681"/><rect x="352" y="82" width="11" height="11" rx="2" fill="#161b22"/><rect x="368" y="82" width="11" height="11" rx="2" fill="#161b22"/><rect x="384" y="82" width="11" height="11" rx="2" fill="#6e7681"/><rect x="400" y="82" width="11" height="11" rx="2" fill="#161b22"/><rect x="416" y="82" width="11" height="11" rx="2" fill="#161b22"/><rect x="432" y="82" width="11" height="11" rx="2" fill="#161b22"/><rect x="448" y="82" width="11" height="11" rx="2" fill="#161b22"/><rect x="464" y="82" width="11" height="11" rx="2" fill="#161b22"/><rect x="480" y="82" width="11" height="11" rx="2" fill="#161b22"/><rect x="496" y="82" width="11" height="11" rx="2" fill="#6e7681"/><rect x="512" y="82" width="11" height="11" rx="2" fill="#161b22"/><rect x="528" y="82" width="11" height="11" rx="2" fill="#161b22"/><rect x="544" y="82" width="11" height="11" rx="2" fill="#161b22"/><rect x="560" y="82" width="11" height="11" rx="2" fill="#161b22"/><rect x="576" y="82" width="11" height="11" rx="2" fill="#30363d"/><rect x="592" y="82" width="11" height="11" rx="2" fill="#30363d"/><rect x="608" y="82" width="11" height="11" rx="2" fill="#161b22"/><rect x="624" y="82" width="11" height="11" rx="2" fill="#161b22"/><rect x="640" y="82" width="11" height="11" rx="2" fill="#161b22"/><rect x="656" y="82" width="11" height="11" rx="2" fill="#30363d"/><rect x="672" y="82" width="11" height="11" rx="2" fill="#161b22"/><rect x="688" y="82" width="11" height="11" rx="2" fill="#f0f6fc"/><rect x="704" y="82" width="11" height="11" rx="2" fill="#6e7681"/><rect x="720" y="82" width="11" height="11" rx="2" fill="#6e7681"/><rect x="736" y="82" width="11" height="11" rx="2" fill="#6e7681"/><rect x="752" y="82" width="11" height="11" rx="2" fill="#484f58"/><rect x="768" y="82" width="11" height="11" rx="2" fill="#484f58"/><rect x="784" y="82" width="11" height="11" rx="2" fill="#161b22"/><rect x="800" y="82" width="11" height="11" rx="2" fill="#161b22"/><rect x="816" y="82" width="11" height="11" rx="2" fill="#161b22"/><rect x="832" y="82" width="11" height="11" rx="2" fill="#161b22"/><rect x="848" y="82" width="11" height="11" rx="2" fill="#6e7681"/><rect x="864" y="82" width="11" height="11" rx="2" fill="#161b22"/><rect x="32" y="104" width="11" height="11" rx="2" fill="#161b22"/><rect x="48" y="104" width="11" height="11" rx="2" fill="#30363d"/><rect x="64" y="104" width="11" height="11" rx="2" fill="#161b22"/><rect x="80" y="104" width="11" height="11" rx="2" fill="#484f58"/><rect x="96" y="104" width="11" height="11" rx="2" fill="#161b22"/><rect x="112" y="104" width="11" height="11" rx="2" fill="#f0f6fc"/><rect x="128" y="104" width="11" height="11" rx="2" fill="#161b22"/><rect x="144" y="104" width="11" height="11" rx="2" fill="#484f58"/><rect x="160" y="104" width="11" height="11" rx="2" fill="#30363d"/><rect x="176" y="104" width="11" height="11" rx="2" fill="#161b22"/><rect x="192" y="104" width="11" height="11" rx="2" fill="#161b22"/><rect x="208" y="104" width="11" height="11" rx="2" fill="#161b22"/><rect x="224" y="104" width="11" height="11" rx="2" fill="#30363d"/><rect x="240" y="104" width="11" height="11" rx="2" fill="#161b22"/><rect x="256" y="104" width="11" height="11" rx="2" fill="#484f58"/><rect x="272" y="104" width="11" height="11" rx="2" fill="#6e7681"/><rect x="288" y="104" width="11" height="11" rx="2" fill="#6e7681"/><rect x="304" y="104" width="11" height="11" rx="2" fill="#161b22"/><rect x="320" y="104" width="11" height="11" rx="2" fill="#161b22"/><rect x="336" y="104" width="11" height="11" rx="2" fill="#6e7681"/><rect x="352" y="104" width="11" height="11" rx="2" fill="#161b22"/><rect x="368" y="104" width="11" height="11" rx="2" fill="#161b22"/><rect x="384" y="104" width="11" height="11" rx="2" fill="#161b22"/><rect x="400" y="104" width="11" height="11" rx="2" fill="#161b22"/><rect x="416" y="104" width="11" height="11" rx="2" fill="#30363d"/><rect x="432" y="104" width="11" height="11" rx="2" fill="#6e7681"/><rect x="448" y="104" width="11" height="11" rx="2" fill="#161b22"/><rect x="464" y="104" width="11" height="11" rx="2" fill="#161b22"/><rect x="480" y="104" width="11" height="11" rx="2" fill="#6e7681"/><rect x="496" y="104" width="11" height="11" rx="2" fill="#f0f6fc"/><rect x="512" y="104" width="11" height="11" rx="2" fill="#161b22"/><rect x="528" y="104" width="11" height="11" rx="2" fill="#30363d"/><rect x="544" y="104" width="11" height="11" rx="2" fill="#161b22"/><rect x="560" y="104" width="11" height="11" rx="2" fill="#161b22"/><rect x="576" y="104" width="11" height="11" rx="2" fill="#161b22"/><rect x="592" y="104" width="11" height="11" rx="2" fill="#30363d"/><rect x="608" y="104" width="11" height="11" rx="2" fill="#30363d"/><rect x="624" y="104" width="11" height="11" rx="2" fill="#484f58"/><rect x="640" y="104" width="11" height="11" rx="2" fill="#161b22"/><rect x="656" y="104" width="11" height="11" rx="2" fill="#161b22"/><rect x="672" y="104" width="11" height="11" rx="2" fill="#f0f6fc"/><rect x="688" y="104" width="11" height="11" rx="2" fill="#6e7681"/><rect x="704" y="104" width="11" height="11" rx="2" fill="#484f58"/><rect x="720" y="104" width="11" height="11" rx="2" fill="#484f58"/><rect x="736" y="104" width="11" height="11" rx="2" fill="#30363d"/><rect x="752" y="104" width="11" height="11" rx="2" fill="#30363d"/><rect x="768" y="104" width="11" height="11" rx="2" fill="#161b22"/><rect x="784" y="104" width="11" height="11" rx="2" fill="#30363d"/><rect x="800" y="104" width="11" height="11" rx="2" fill="#484f58"/><rect x="816" y="104" width="11" height="11" rx="2" fill="#6e7681"/><rect x="832" y="104" width="11" height="11" rx="2" fill="#6e7681"/><rect x="848" y="104" width="11" height="11" rx="2" fill="#6e7681"/><rect x="864" y="104" width="11" height="11" rx="2" fill="#161b22"/><rect x="32" y="126" width="11" height="11" rx="2" fill="#161b22"/><rect x="48" y="126" width="11" height="11" rx="2" fill="#161b22"/><rect x="64" y="126" width="11" height="11" rx="2" fill="#6e7681"/><rect x="80" y="126" width="11" height="11" rx="2" fill="#161b22"/><rect x="96" y="126" width="11" height="11" rx="2" fill="#484f58"/><rect x="112" y="126" width="11" height="11" rx="2" fill="#30363d"/><rect x="128" y="126" width="11" height="11" rx="2" fill="#30363d"/><rect x="144" y="126" width="11" height="11" rx="2" fill="#161b22"/><rect x="160" y="126" width="11" height="11" rx="2" fill="#161b22"/><rect x="176" y="126" width="11" height="11" rx="2" fill="#161b22"/><rect x="192" y="126" width="11" height="11" rx="2" fill="#484f58"/><rect x="208" y="126" width="11" height="11" rx="2" fill="#484f58"/><rect x="224" y="126" width="11" height="11" rx="2" fill="#6e7681"/><rect x="240" y="126" width="11" height="11" rx="2" fill="#6e7681"/><rect x="256" y="126" width="11" height="11" rx="2" fill="#161b22"/><rect x="272" y="126" width="11" height="11" rx="2" fill="#f0f6fc"/><rect x="288" y="126" width="11" height="11" rx="2" fill="#161b22"/><rect x="304" y="126" width="11" height="11" rx="2" fill="#30363d"/><rect x="320" y="126" width="11" height="11" rx="2" fill="#161b22"/><rect x="336" y="126" width="11" height="11" rx="2" fill="#161b22"/><rect x="352" y="126" width="11" height="11" rx="2" fill="#161b22"/><rect x="368" y="126" width="11" height="11" rx="2" fill="#484f58"/><rect x="384" y="126" width="11" height="11" rx="2" fill="#161b22"/><rect x="400" y="126" width="11" height="11" rx="2" fill="#161b22"/><rect x="416" y="126" width="11" height="11" rx="2" fill="#f0f6fc"/><rect x="432" y="126" width="11" height="11" rx="2" fill="#6e7681"/><rect x="448" y="126" width="11" height="11" rx="2" fill="#6e7681"/><rect x="464" y="126" width="11" height="11" rx="2" fill="#484f58"/><rect x="480" y="126" width="11" height="11" rx="2" fill="#161b22"/><rect x="496" y="126" width="11" height="11" rx="2" fill="#161b22"/><rect x="512" y="126" width="11" height="11" rx="2" fill="#161b22"/><rect x="528" y="126" width="11" height="11" rx="2" fill="#161b22"/><rect x="544" y="126" width="11" height="11" rx="2" fill="#161b22"/><rect x="560" y="126" width="11" height="11" rx="2" fill="#484f58"/><rect x="576" y="126" width="11" height="11" rx="2" fill="#484f58"/><rect x="592" y="126" width="11" height="11" rx="2" fill="#161b22"/><rect x="608" y="126" width="11" height="11" rx="2" fill="#f0f6fc"/><rect x="624" y="126" width="11" height="11" rx="2" fill="#f0f6fc"/><rect x="640" y="126" width="11" height="11" rx="2" fill="#161b22"/><rect x="656" y="126" width="11" height="11" rx="2" fill="#161b22"/><rect x="672" y="126" width="11" height="11" rx="2" fill="#161b22"/><rect x="688" y="126" width="11" height="11" rx="2" fill="#161b22"/><rect x="704" y="126" width="11" height="11" rx="2" fill="#161b22"/><rect x="720" y="126" width="11" height="11" rx="2" fill="#161b22"/><rect x="736" y="126" width="11" height="11" rx="2" fill="#161b22"/><rect x="752" y="126" width="11" height="11" rx="2" fill="#161b22"/><rect x="768" y="126" width="11" height="11" rx="2" fill="#6e7681"/><rect x="784" y="126" width="11" height="11" rx="2" fill="#161b22"/><rect x="800" y="126" width="11" height="11" rx="2" fill="#6e7681"/><rect x="816" y="126" width="11" height="11" rx="2" fill="#161b22"/><rect x="832" y="126" width="11" height="11" rx="2" fill="#484f58"/><rect x="848" y="126" width="11" height="11" rx="2" fill="#30363d"/><rect x="864" y="126" width="11" height="11" rx="2" fill="#161b22"/><rect x="32" y="148" width="11" height="11" rx="2" fill="#6e7681"/><rect x="48" y="148" width="11" height="11" rx="2" fill="#484f58"/><rect x="64" y="148" width="11" height="11" rx="2" fill="#161b22"/><rect x="80" y="148" width="11" height="11" rx="2" fill="#161b22"/><rect x="96" y="148" width="11" height="11" rx="2" fill="#30363d"/><rect x="112" y="148" width="11" height="11" rx="2" fill="#161b22"/><rect x="128" y="148" width="11" height="11" rx="2" fill="#161b22"/><rect x="144" y="148" width="11" height="11" rx="2" fill="#484f58"/><rect x="160" y="148" width="11" height="11" rx="2" fill="#161b22"/><rect x="176" y="148" width="11" height="11" rx="2" fill="#161b22"/><rect x="192" y="148" width="11" height="11" rx="2" fill="#161b22"/><rect x="208" y="148" width="11" height="11" rx="2" fill="#161b22"/><rect x="224" y="148" width="11" height="11" rx="2" fill="#161b22"/><rect x="240" y="148" width="11" height="11" rx="2" fill="#6e7681"/><rect x="256" y="148" width="11" height="11" rx="2" fill="#484f58"/><rect x="272" y="148" width="11" height="11" rx="2" fill="#161b22"/><rect x="288" y="148" width="11" height="11" rx="2" fill="#161b22"/><rect x="304" y="148" width="11" height="11" rx="2" fill="#161b22"/><rect x="320" y="148" width="11" height="11" rx="2" fill="#484f58"/><rect x="336" y="148" width="11" height="11" rx="2" fill="#484f58"/><rect x="352" y="148" width="11" height="11" rx="2" fill="#6e7681"/><rect x="368" y="148" width="11" height="11" rx="2" fill="#6e7681"/><rect x="384" y="148" width="11" height="11" rx="2" fill="#161b22"/><rect x="400" y="148" width="11" height="11" rx="2" fill="#f0f6fc"/><rect x="416" y="148" width="11" height="11" rx="2" fill="#484f58"/><rect x="432" y="148" width="11" height="11" rx="2" fill="#161b22"/><rect x="448" y="148" width="11" height="11" rx="2" fill="#161b22"/><rect x="464" y="148" width="11" height="11" rx="2" fill="#161b22"/><rect x="480" y="148" width="11" height="11" rx="2" fill="#161b22"/><rect x="496" y="148" width="11" height="11" rx="2" fill="#161b22"/><rect x="512" y="148" width="11" height="11" rx="2" fill="#30363d"/><rect x="528" y="148" width="11" height="11" rx="2" fill="#484f58"/><rect x="544" y="148" width="11" height="11" rx="2" fill="#161b22"/><rect x="560" y="148" width="11" height="11" rx="2" fill="#f0f6fc"/><rect x="576" y="148" width="11" height="11" rx="2" fill="#6e7681"/><rect x="592" y="148" width="11" height="11" rx="2" fill="#f0f6fc"/><rect x="608" y="148" width="11" height="11" rx="2" fill="#161b22"/><rect x="624" y="148" width="11" height="11" rx="2" fill="#161b22"/><rect x="640" y="148" width="11" height="11" rx="2" fill="#161b22"/><rect x="656" y="148" width="11" height="11" rx="2" fill="#161b22"/><rect x="672" y="148" width="11" height="11" rx="2" fill="#161b22"/><rect x="688" y="148" width="11" height="11" rx="2" fill="#161b22"/><rect x="704" y="148" width="11" height="11" rx="2" fill="#484f58"/><rect x="720" y="148" width="11" height="11" rx="2" fill="#161b22"/><rect x="736" y="148" width="11" height="11" rx="2" fill="#6e7681"/><rect x="752" y="148" width="11" height="11" rx="2" fill="#161b22"/><rect x="768" y="148" width="11" height="11" rx="2" fill="#161b22"/><rect x="784" y="148" width="11" height="11" rx="2" fill="#161b22"/><rect x="800" y="148" width="11" height="11" rx="2" fill="#161b22"/><rect x="816" y="148" width="11" height="11" rx="2" fill="#161b22"/><rect x="832" y="148" width="11" height="11" rx="2" fill="#161b22"/><rect x="848" y="148" width="11" height="11" rx="2" fill="#161b22"/><rect x="864" y="148" width="11" height="11" rx="2" fill="#161b22"/><rect x="32" y="170" width="11" height="11" rx="2" fill="#161b22"/><rect x="48" y="170" width="11" height="11" rx="2" fill="#161b22"/><rect x="64" y="170" width="11" height="11" rx="2" fill="#161b22"/><rect x="80" y="170" width="11" height="11" rx="2" fill="#161b22"/><rect x="96" y="170" width="11" height="11" rx="2" fill="#161b22"/><rect x="112" y="170" width="11" height="11" rx="2" fill="#161b22"/><rect x="128" y="170" width="11" height="11" rx="2" fill="#f0f6fc"/><rect x="144" y="170" width="11" height="11" rx="2" fill="#6e7681"/><rect x="160" y="170" width="11" height="11" rx="2" fill="#f0f6fc"/><rect x="176" y="170" width="11" height="11" rx="2" fill="#f0f6fc"/><rect x="192" y="170" width="11" height="11" rx="2" fill="#161b22"/><rect x="208" y="170" width="11" height="11" rx="2" fill="#161b22"/><rect x="224" y="170" width="11" height="11" rx="2" fill="#161b22"/><rect x="240" y="170" width="11" height="11" rx="2" fill="#161b22"/><rect x="256" y="170" width="11" height="11" rx="2" fill="#161b22"/><rect x="272" y="170" width="11" height="11" rx="2" fill="#161b22"/><rect x="288" y="170" width="11" height="11" rx="2" fill="#6e7681"/><rect x="304" y="170" width="11" height="11" rx="2" fill="#f0f6fc"/><rect x="320" y="170" width="11" height="11" rx="2" fill="#f0f6fc"/><rect x="336" y="170" width="11" height="11" rx="2" fill="#161b22"/><rect x="352" y="170" width="11" height="11" rx="2" fill="#f0f6fc"/><rect x="368" y="170" width="11" height="11" rx="2" fill="#484f58"/><rect x="384" y="170" width="11" height="11" rx="2" fill="#484f58"/><rect x="400" y="170" width="11" height="11" rx="2" fill="#30363d"/><rect x="416" y="170" width="11" height="11" rx="2" fill="#30363d"/><rect x="432" y="170" width="11" height="11" rx="2" fill="#161b22"/><rect x="448" y="170" width="11" height="11" rx="2" fill="#161b22"/><rect x="464" y="170" width="11" height="11" rx="2" fill="#161b22"/><rect x="480" y="170" width="11" height="11" rx="2" fill="#161b22"/><rect x="496" y="170" width="11" height="11" rx="2" fill="#161b22"/><rect x="512" y="170" width="11" height="11" rx="2" fill="#f0f6fc"/><rect x="528" y="170" width="11" height="11" rx="2" fill="#161b22"/><rect x="544" y="170" width="11" height="11" rx="2" fill="#161b22"/><rect x="560" y="170" width="11" height="11" rx="2" fill="#30363d"/><rect x="576" y="170" width="11" height="11" rx="2" fill="#161b22"/><rect x="592" y="170" width="11" height="11" rx="2" fill="#161b22"/><rect x="608" y="170" width="11" height="11" rx="2" fill="#30363d"/><rect x="624" y="170" width="11" height="11" rx="2" fill="#161b22"/><rect x="640" y="170" width="11" height="11" rx="2" fill="#30363d"/><rect x="656" y="170" width="11" height="11" rx="2" fill="#484f58"/><rect x="672" y="170" width="11" height="11" rx="2" fill="#161b22"/><rect x="688" y="170" width="11" height="11" rx="2" fill="#161b22"/><rect x="704" y="170" width="11" height="11" rx="2" fill="#161b22"/><rect x="720" y="170" width="11" height="11" rx="2" fill="#6e7681"/><rect x="736" y="170" width="11" height="11" rx="2" fill="#161b22"/><rect x="752" y="170" width="11" height="11" rx="2" fill="#30363d"/><rect x="768" y="170" width="11" height="11" rx="2" fill="#161b22"/><rect x="784" y="170" width="11" height="11" rx="2" fill="#161b22"/><rect x="800" y="170" width="11" height="11" rx="2" fill="#161b22"/><rect x="816" y="170" width="11" height="11" rx="2" fill="#30363d"/><rect x="832" y="170" width="11" height="11" rx="2" fill="#484f58"/><rect x="848" y="170" width="11" height="11" rx="2" fill="#161b22"/><rect x="864" y="170" width="11" height="11" rx="2" fill="#161b22"/>
<text x="32" y="205" fill="#6e7681" font-family="Arial,sans-serif" font-size="11">A visual activity panel — replace with live contribution data when the workflow is enabled.</text>
</svg>